# xmcd CD database file
#
# Track frame offsets:
#	150
#	20340
#	51250
#	65299
#	81268
#	97659
#	114041
#	138686
#	158188
#	174292
#	193074
#
# Disc length: 2803 seconds
#
# Revision: 3
# Processed by: cddbd v1.5.2PL0 Copyright (c) Steve Scherf et al.
# Submitted via: CDex 1.72
#
DISCID=840af10b
DTITLE=Russell, Tom (USA-06-Love and Fear-cty) - Love and Fear
DYEAR=2006
DGENRE=Country
TTITLE0=The Pugilist at 59
TTITLE1=Beautiful Trouble
TTITLE2=Stealing Electricity
TTITLE3=The Sound of One Heart Breaking
TTITLE4=Ash Wednesday
TTITLE5=K.C. Violin
TTITLE6=Four Chambered Heart
TTITLE7=Stolen Children
TTITLE8=It Goes Away
TTITLE9=All the Fine Young Ladies
TTITLE10=Old Heart
EXTD=YEAR: 2006
EXTT0=
EXTT1=
EXTT2=
EXTT3=
EXTT4=
EXTT5=
EXTT6=
EXTT7=
EXTT8=
EXTT9=
EXTT10=
PLAYORDER=
